<svg width="502" height="130" viewBox="0 0 502 130" fill="none" xmlns="http://www.w3.org/2000/svg">
<g id="Simplification">
<g id="Filament5line">
<g id="Line5">
<path id="Line5a" d="M453 8H455V27H453V8Z" fill="#000000" opacity="0"/>
<path id="Line5b" d="M21 9H23V82H21V9Z" fill="#000000" opacity="0"/>
<path id="Line5c" d="M21 8H454V10H21V8Z" fill="#000000" opacity="0"/>
</g>
</g>
<g id="Filament4line">
<g id="Line4">
<path id="Line4a" d="M372 8H374V27H372V8Z" fill="#FE9800"/>
<path id="Line4b" d="M21 9H23V82H21V9Z" fill="#FE9800"/>
<path id="Line4c" d="M21 8H372V10H21V8Z" fill="#FE9800"/>
</g>
</g>
<g id="Filament3line">
<g id="Line3">
<path id="Line3a" d="M291 8H293V27H291V8Z" fill="#EA00FE"/>
<path id="Line3b" d="M21 9H23V82H21V9Z" fill="#EA00FE"/>
<path id="Line3c" d="M21 8H293V10H21V8Z" fill="#EA00FE"/>
</g>
</g>
<g id="Filament2line">
<g id="Line2">
<path id="Line2a" d="M208 8H210V27H208V8Z" fill="#00D800"/>
<path id="Line2b" d="M21 9H23V82H21V9Z" fill="#00D800"/>
<path id="Line2c" d="M21 8H210V10H21V8Z" fill="#00D800"/>
</g>
</g>
<g id="Filament1line">
<g id="Line1">
<path id="Line1a" d="M126 8H128V27H126V8Z" fill="#00BEFE"/>
<path id="Line1b" d="M21 8H128V10H21V8Z" fill="#00BEFE"/>
<path id="Line1c" d="M21 9H23V82H21V9Z" fill="#00BEFE"/>
</g>
</g>
<g id="Extruder">
<g id="Background">
<path d="M18.2692 74.8066C18.5197 74.8062 18.7702 74.8059 19.0208 74.8055C19.5442 74.8049 20.0677 74.8047 20.5912 74.8048C21.2565 74.8048 21.9218 74.8034 22.5871 74.8017C23.1042 74.8005 23.6213 74.8003 24.1385 74.8004C24.3835 74.8003 24.6285 74.7998 24.8735 74.799C28.1704 74.7893 30.9263 75.1564 33.8383 76.7579C33.9262 76.803 34.0141 76.8482 34.1047 76.8947C35.5916 77.6653 36.9561 78.9831 37.9399 80.3209C38.0273 80.4341 38.0273 80.4341 38.1165 80.5496C39.8322 82.8504 40.724 85.7193 40.7235 88.5632C40.7239 88.6954 40.7243 88.8275 40.7247 88.9637C40.7257 89.329 40.7261 89.6943 40.7264 90.0595C40.7268 90.4541 40.7277 90.8487 40.7286 91.2433C40.7307 92.1954 40.7317 93.1475 40.7326 94.0996C40.7331 94.5486 40.7336 94.9977 40.7341 95.4467C40.7359 96.9406 40.7374 98.4345 40.7381 99.9283C40.7383 100.316 40.7385 100.703 40.7387 101.09C40.7388 101.186 40.7388 101.282 40.7389 101.382C40.7397 102.94 40.7423 104.498 40.7456 106.056C40.749 107.657 40.7509 109.259 40.7512 110.861C40.7514 111.76 40.7523 112.658 40.7549 113.556C40.7572 114.322 40.758 115.087 40.757 115.852C40.7565 116.242 40.7567 116.632 40.7587 117.022C40.7802 121.438 40.7802 121.438 39.2793 123.166C37.8405 124.426 35.7057 124.83 33.8511 124.818C33.7681 124.818 33.685 124.818 33.5995 124.817C33.3373 124.817 33.0751 124.816 32.8129 124.814C32.6339 124.814 32.4548 124.813 32.2758 124.813C31.8396 124.812 31.4034 124.81 30.9672 124.808C30.9672 124.371 30.9672 123.935 30.9672 123.485C30.8561 123.499 30.7449 123.514 30.6304 123.529C29.0001 123.726 27.3768 123.709 25.7377 123.688C25.7377 124.058 25.7377 124.427 25.7377 124.808C25.6502 124.851 25.5627 124.895 25.4726 124.94C25.4123 124.97 25.3519 125 25.2898 125.03C25.1496 125.1 25.0093 125.169 24.8689 125.238C24.3867 125.475 23.9095 125.72 23.4342 125.971C23.2002 126.092 22.9661 126.214 22.7321 126.335C22.6209 126.395 22.5098 126.455 22.3953 126.516C21.6863 126.88 21.104 127.081 20.3032 126.946C19.9395 126.807 19.9395 126.807 19.611 126.609C19.482 126.534 19.3526 126.46 19.2229 126.386C19.1519 126.346 19.0809 126.305 19.0078 126.263C18.5212 125.999 18.017 125.768 17.5154 125.533C17.3609 125.461 17.3609 125.461 17.2033 125.386C17.0174 125.299 16.8314 125.212 16.6453 125.125C16.4278 125.022 16.2121 124.915 15.9965 124.808C15.9965 124.438 15.9965 124.069 15.9965 123.688C15.8637 123.691 15.7308 123.693 15.594 123.695C14.3454 123.71 13.1332 123.642 11.895 123.485C11.8611 123.921 11.8273 124.358 11.7924 124.808C11.2986 124.816 10.8049 124.821 10.311 124.825C10.1439 124.826 9.97677 124.828 9.80966 124.831C7.61167 124.865 5.24282 124.622 3.56766 123.071C2.31641 121.778 2.1049 120.034 2.11468 118.314C2.1142 118.181 2.11373 118.049 2.11323 117.912C2.11196 117.549 2.11257 117.185 2.11353 116.822C2.11423 116.428 2.11315 116.035 2.11231 115.641C2.11095 114.872 2.11123 114.102 2.11213 113.333C2.11283 112.707 2.11292 112.081 2.11258 111.455C2.11254 111.366 2.11249 111.276 2.11244 111.184C2.11234 111.002 2.11224 110.821 2.11214 110.639C2.11126 108.939 2.11227 107.239 2.11393 105.539C2.1153 104.083 2.11506 102.628 2.11364 101.172C2.11199 99.4784 2.11135 97.7844 2.11229 96.0904C2.11239 95.9094 2.11249 95.7283 2.11258 95.5473C2.11265 95.4137 2.11265 95.4137 2.11273 95.2774C2.11299 94.6531 2.11255 94.0289 2.11182 93.4046C2.11095 92.6425 2.1112 91.8803 2.11283 91.1182C2.11363 90.7301 2.11396 90.3421 2.11294 89.954C2.10602 87.0999 2.39345 84.5765 3.79437 82.0515C3.8561 81.9389 3.91783 81.8263 3.98143 81.7103C4.65041 80.5312 5.51753 79.5581 6.46039 78.5903C6.53917 78.5093 6.61795 78.4284 6.69911 78.3449C9.8913 75.2921 14.0641 74.8079 18.2692 74.8066Z" fill="#BFBFBF"/>
<path d="M18.2692 74.8066C18.5197 74.8062 18.7702 74.8059 19.0208 74.8055C19.5442 74.8049 20.0677 74.8047 20.5912 74.8048C21.2565 74.8048 21.9218 74.8034 22.5871 74.8017C23.1042 74.8005 23.6213 74.8003 24.1385 74.8004C24.3835 74.8003 24.6285 74.7998 24.8735 74.799C28.1704 74.7893 30.9263 75.1564 33.8383 76.7579C33.9262 76.803 34.0141 76.8482 34.1047 76.8947C35.5916 77.6653 36.9561 78.9831 37.9399 80.3209C38.0273 80.4341 38.0273 80.4341 38.1165 80.5496C39.796 82.8019 40.7283 85.6516 40.7208 88.4428C40.7209 88.6215 40.7209 88.6215 40.721 88.8039C40.7212 89.1329 40.7209 89.4618 40.7203 89.7908C40.7199 90.1462 40.72 90.5016 40.7201 90.8571C40.7202 91.4723 40.7199 92.0874 40.7193 92.7026C40.7184 93.5921 40.7182 94.4816 40.7181 95.371C40.7178 96.8142 40.7171 98.2574 40.7162 99.7006C40.7152 101.102 40.7145 102.504 40.7141 103.906C40.714 104.035 40.714 104.035 40.714 104.168C40.7139 104.601 40.7137 105.035 40.7136 105.469C40.7125 109.065 40.7107 112.661 40.7084 116.257C38.9489 116.257 37.1893 116.257 35.3764 116.257C35.3744 115.42 35.3723 114.584 35.3703 113.722C35.3636 111.041 35.356 108.36 35.3477 105.679C35.3464 105.263 35.3451 104.846 35.3439 104.429C35.3435 104.304 35.3435 104.304 35.3431 104.177C35.339 102.836 35.3357 101.495 35.3326 100.154C35.3294 98.7761 35.3254 97.3984 35.3208 96.0207C35.3179 95.1716 35.3156 94.3226 35.3141 93.4735C35.3131 92.89 35.3112 92.3066 35.3088 91.7232C35.3075 91.3873 35.3065 91.0515 35.3062 90.7156C35.3034 87.6773 35.0271 84.8271 32.9155 82.4587C32.8362 82.3601 32.7569 82.2614 32.6751 82.1597C31.1928 80.3937 28.7255 79.4581 26.4868 79.2209C25.6808 79.1534 24.8684 79.1698 24.0603 79.1705C23.851 79.1701 23.6418 79.1696 23.4326 79.1692C22.9961 79.1684 22.5597 79.1684 22.1233 79.169C21.5696 79.1696 21.016 79.1678 20.4623 79.1655C20.0306 79.164 19.599 79.1639 19.1674 79.1642C18.9635 79.1641 18.7597 79.1636 18.5558 79.1626C15.7451 79.15 13.1844 79.5887 10.9721 81.4407C10.8899 81.5063 10.8077 81.572 10.723 81.6396C8.89404 83.1668 7.86137 85.4566 7.6096 87.7888C7.5688 88.3044 7.57352 88.8203 7.57392 89.3371C7.57361 89.4637 7.57331 89.5903 7.57299 89.7207C7.57226 90.0699 7.57198 90.4191 7.57191 90.7682C7.57172 91.1457 7.57094 91.5231 7.57025 91.9006C7.56886 92.7249 7.56824 93.5492 7.56779 94.3735C7.56751 94.8888 7.56707 95.404 7.56661 95.9193C7.56536 97.3476 7.56431 98.7759 7.56396 100.204C7.56394 100.295 7.56391 100.387 7.56389 100.481C7.56387 100.572 7.56384 100.664 7.56382 100.758C7.56378 100.944 7.56373 101.129 7.56368 101.314C7.56365 101.452 7.56365 101.452 7.56362 101.593C7.56321 103.083 7.56142 104.572 7.55903 106.062C7.5566 107.594 7.55532 109.125 7.5552 110.657C7.55511 111.516 7.55453 112.375 7.55266 113.234C7.55107 113.966 7.55056 114.697 7.5514 115.429C7.5518 115.802 7.55172 116.174 7.55027 116.547C7.54871 116.952 7.54957 117.358 7.55064 117.763C7.54981 117.879 7.54898 117.995 7.54813 118.115C7.55533 119.292 7.68559 120.838 8.57846 121.718C8.71625 121.856 8.71625 121.856 8.71625 122.059C8.80646 122.102 8.80646 122.102 8.89849 122.146C9.10863 122.254 9.29622 122.373 9.4917 122.505C10.1925 122.945 10.9962 123.172 11.7924 123.383C11.7924 123.853 11.7924 124.323 11.7924 124.808C11.2986 124.816 10.8049 124.821 10.311 124.825C10.1439 124.826 9.97677 124.828 9.80966 124.831C7.61167 124.865 5.24282 124.622 3.56766 123.071C2.31641 121.778 2.1049 120.034 2.11468 118.314C2.1142 118.181 2.11373 118.049 2.11323 117.912C2.11196 117.549 2.11257 117.185 2.11353 116.822C2.11423 116.428 2.11315 116.035 2.11231 115.641C2.11095 114.872 2.11123 114.102 2.11213 113.333C2.11283 112.707 2.11292 112.081 2.11258 111.455C2.11254 111.366 2.11249 111.276 2.11244 111.184C2.11234 111.002 2.11224 110.821 2.11214 110.639C2.11126 108.939 2.11227 107.239 2.11393 105.539C2.1153 104.083 2.11506 102.628 2.11364 101.172C2.11199 99.4784 2.11135 97.7844 2.11229 96.0904C2.11239 95.9094 2.11249 95.7283 2.11258 95.5473C2.11265 95.4137 2.11265 95.4137 2.11273 95.2774C2.11299 94.6531 2.11255 94.0289 2.11182 93.4046C2.11095 92.6425 2.1112 91.8803 2.11283 91.1182C2.11363 90.7301 2.11396 90.3421 2.11294 89.954C2.10602 87.0999 2.39345 84.5765 3.79437 82.0515C3.8561 81.9389 3.91783 81.8263 3.98143 81.7103C4.65041 80.5312 5.51753 79.5581 6.46039 78.5903C6.53917 78.5093 6.61795 78.4284 6.69911 78.3449C9.8913 75.2921 14.0641 74.8079 18.2692 74.8066Z" fill="#ABABAB"/>
<path d="M7.48644 116.256C16.6565 116.256 25.8266 116.256 35.2745 116.256C35.2745 120.748 35.2745 120.748 34.0669 122.052C33.545 122.545 32.9693 122.824 32.3009 123.077C32.2031 123.115 32.1053 123.153 32.0045 123.192C30.0179 123.879 27.8106 123.714 25.7377 123.688C25.7377 124.058 25.7377 124.427 25.7377 124.808C25.6502 124.851 25.5627 124.895 25.4726 124.94C25.4123 124.97 25.3519 125 25.2898 125.03C25.1496 125.1 25.0093 125.169 24.8689 125.238C24.3867 125.475 23.9095 125.72 23.4342 125.971C23.2002 126.092 22.9661 126.214 22.7321 126.335C22.6209 126.395 22.5098 126.455 22.3953 126.516C21.6863 126.88 21.104 127.081 20.3032 126.946C19.9395 126.807 19.9395 126.807 19.611 126.609C19.482 126.534 19.3526 126.46 19.2229 126.386C19.1519 126.346 19.0809 126.305 19.0078 126.263C18.5212 125.999 18.017 125.768 17.5154 125.533C17.4124 125.485 17.3094 125.436 17.2033 125.386C17.0174 125.299 16.8314 125.212 16.6453 125.125C16.4278 125.022 16.2121 124.915 15.9965 124.808C15.9965 124.438 15.9965 124.069 15.9965 123.688C15.8637 123.691 15.7308 123.693 15.594 123.695C13.2293 123.725 11.0084 123.575 8.95403 122.295C8.03743 121.385 7.6961 120.356 7.48644 119.107C7.48644 118.166 7.48644 117.226 7.48644 116.256Z" fill="#DCDCDC"/>
<path d="M28.9106 90.2315C31.2634 92.2323 32.882 95.0031 33.1688 98.1056C33.4139 101.339 32.4964 104.425 30.3782 106.922C28.288 109.306 25.4173 110.699 22.2512 110.964C19.1177 111.135 16.0114 110.164 13.6429 108.09C11.2373 105.916 9.77826 103.029 9.61967 99.7785C9.54135 96.5124 10.676 93.5122 12.9525 91.1417C17.1682 86.867 24.2257 86.3929 28.9106 90.2315ZM15.176 93.4538C15.1011 93.5246 15.0261 93.5955 14.9489 93.6685C14.2627 94.3646 13.8391 95.2242 13.4328 96.1006C13.403 96.1634 13.3732 96.2261 13.3424 96.2908C12.5819 97.964 12.6207 100.324 13.2686 102.028C13.3225 102.156 13.3772 102.284 13.4328 102.412C13.4614 102.481 13.49 102.549 13.5195 102.62C14.4332 104.762 16.0901 106.316 18.2522 107.197C20.1966 107.894 22.3371 107.976 24.302 107.299C24.4108 107.262 24.5196 107.225 24.6316 107.187C25.4153 106.892 26.0897 106.467 26.7629 105.975C26.8355 105.922 26.9081 105.869 26.9828 105.815C28.631 104.495 29.6763 102.44 29.9416 100.376C30.1025 97.6871 29.4968 95.4543 27.6702 93.4104C26.146 91.8281 24.0364 90.8677 21.8278 90.7862C19.2122 90.7405 17.0225 91.6284 15.176 93.4538Z" fill="#ABACAB"/>
<path d="M2.15399 116.256C3.91356 116.256 5.67354 116.256 7.48644 116.256C7.5023 116.918 7.50189 116.918 7.51807 117.593C7.54805 119.815 7.5478 119.815 8.57846 121.718C8.71625 121.856 8.71625 121.856 8.71625 122.059C8.80646 122.102 8.80646 122.102 8.89849 122.146C9.10863 122.254 9.29622 122.373 9.4917 122.505C10.1925 122.945 10.9962 123.172 11.7924 123.383C11.7924 123.853 11.7924 124.323 11.7924 124.808C11.2986 124.816 10.8049 124.821 10.311 124.825C10.1439 124.826 9.97677 124.828 9.80966 124.831C7.61167 124.865 5.24282 124.622 3.56766 123.071C2.19061 121.648 2.10348 119.755 2.13477 117.892C2.14111 117.352 2.14746 116.812 2.15399 116.256Z" fill="#BBBBBB"/>
<path d="M15.9965 123.688C19.2111 123.688 22.4257 123.688 25.7377 123.688C25.7377 124.058 25.7377 124.427 25.7377 124.808C25.6502 124.851 25.5627 124.895 25.4726 124.94C25.4123 124.97 25.3519 125 25.2898 125.03C25.1496 125.1 25.0093 125.169 24.8689 125.238C24.3867 125.475 23.9095 125.72 23.4342 125.971C23.2002 126.092 22.9661 126.214 22.7321 126.335C22.5653 126.425 22.5653 126.425 22.3953 126.516C21.6863 126.88 21.104 127.081 20.3032 126.946C19.9395 126.807 19.9395 126.807 19.611 126.609C19.482 126.534 19.3526 126.46 19.2229 126.386C19.1519 126.346 19.0809 126.305 19.0078 126.263C18.5212 125.999 18.017 125.768 17.5154 125.533C17.4124 125.485 17.3094 125.436 17.2033 125.386C17.0174 125.299 16.8314 125.212 16.6453 125.125C16.4278 125.022 16.2121 124.915 15.9965 124.808C15.9965 124.438 15.9965 124.069 15.9965 123.688Z" fill="#ABABAB"/>
</g>
<path id="Color" fill="#00D800" d="M26.8716 92.6939C28.516 94.1184 29.5573 95.8896 29.9413 98.0345C30.1055 100.519 29.6401 102.67 28.0956 104.652C28.0354 104.729 27.9751 104.806 27.913 104.886C26.6354 106.424 24.6536 107.47 22.6611 107.706C19.8761 107.856 17.6008 107.321 15.4833 105.466C14.1094 104.198 13.0234 102.268 12.9001 100.378C12.8269 97.4071 12.8269 97.4071 13.4326 96.1003C13.4645 96.0296 13.4964 95.9588 13.5292 95.886C14.0229 94.811 14.628 93.965 15.4833 93.1481C15.558 93.0731 15.6327 92.9982 15.7096 92.921C18.7105 90.0634 23.7364 90.1133 26.8716 92.6939Z"/>
</g>
</g>
</svg>
