<svg width="24" height="24" viewBox="0 0 24 24" fill="none" xmlns="http://www.w3.org/2000/svg"><path d="M11.04 14.22C10.98 13.86 10.53 13.43 9.97 12.91C9.35 12.33 8.58 11.61 8.07 10.64C7.19 9.01 5.24 7.86 3.93 7.74C3.86 7.73 3.79 7.73 3.73 7.73C3.41 7.73 3.17 7.81 3.05 7.96C2.36 8.82 1.90 10.17 1.83 11.48C1.75 12.93 2.17 14.10 3.01 14.80C3.89 15.52 5.43 15.94 7.10 15.90C8.70 15.87 10.10 15.44 10.76 14.79C10.93 14.62 11.04 14.46 11.04 14.22Z" fill="#00CC44"/><path d="M13.42 13.73C12.83 14.37 12.10 15.14 11.10 15.67C9.49 16.53 8.37 18.43 8.25 19.69C8.21 20.10 8.29 20.41 8.46 20.55C9.29 21.21 10.60 21.67 11.89 21.74C13.33 21.82 14.49 21.41 15.17 20.60C15.89 19.73 16.30 18.22 16.27 16.58C16.23 15.00 15.81 13.70 15.17 13.06C15.01 12.90 14.86 12.82 14.72 12.82C14.36 12.83 13.95 13.28 13.42 13.73Z" fill="#00CC44"/><path d="M16.40 1.44C15.56 0.77 14.26 0.31 12.97 0.24C12.86 0.23 12.74 0.23 12.63 0.23C11.38 0.23 10.35 0.64 9.73 1.38C9.00 2.25 8.59 3.74 8.62 5.40C8.65 7.00 9.07 8.40 9.72 9.06C9.88 9.22 10.03 9.30 10.18 9.30C10.53 9.29 10.94 8.84 11.47 8.29C12.07 7.65 12.80 6.88 13.80 6.35C15.41 5.49 16.53 3.59 16.65 2.33C16.69 1.92 16.61 1.61 16.40 1.44Z" fill="#00CC44"/><path d="M21.14 7.73C20.27 7.00 18.73 6.58 17.06 6.62C15.46 6.65 14.06 7.08 13.40 7.74C13.23 7.91 13.15 8.07 13.15 8.21C13.16 8.57 13.61 9.00 14.17 9.52C14.79 10.10 15.56 10.82 16.07 11.79C16.95 13.42 18.90 14.57 20.21 14.69C20.62 14.73 20.93 14.65 21.07 14.47C21.76 13.61 22.22 12.26 22.29 10.95C22.37 9.50 21.95 8.33 21.14 7.73Z" fill="#00CC44"/></svg>
