<svg width="24" height="24" viewBox="0 0 24 24" fill="none" xmlns="http://www.w3.org/2000/svg"><path d="M18.71 9.10H20.63L13.11 15.34C12.77 15.62 12.16 15.62 11.81 15.34L4.29 9.10H6.21C6.82 9.10 7.40 8.92 7.85 8.58C8.29 8.24 8.64 7.72 8.64 7.09V1.26C8.64 1.21 8.67 1.09 8.83 0.97C8.99 0.85 9.25 0.75 9.57 0.75H15.36C15.67 0.75 15.93 0.85 16.09 0.97C16.25 1.09 16.28 1.21 16.28 1.26V7.09C16.28 7.72 16.63 8.24 17.07 8.58C17.52 8.92 18.10 9.10 18.71 9.10Z" stroke="#FF6F00" stroke-width="1.2"/><path d="M5.71 14.50C5.38 14.66 5.14 14.85 5.14 15.13C5.14 16.01 7.44 16.01 7.44 16.88C7.44 17.76 5.14 17.76 5.14 18.63C5.14 19.50 7.44 19.50 7.44 20.38C7.44 21.26 5.14 21.26 5.14 22.13" stroke="#FF6F00" stroke-width="1.2" stroke-miterlimit="10" stroke-linecap="round"/><path d="M12.95 19.70C13.32 19.87 13.61 20.07 13.61 20.38C13.61 21.26 11.32 21.26 11.32 22.13" stroke="#FF6F00" stroke-width="1.2" stroke-miterlimit="10" stroke-linecap="round"/><path d="M17.84 15.65C18.48 16.06 19.78 16.22 19.78 16.88C19.78 17.76 17.49 17.76 17.49 18.63C17.49 19.50 19.78 19.50 19.78 20.38C19.78 21.26 17.49 21.26 17.49 22.13" stroke="#FF6F00" stroke-width="1.2" stroke-miterlimit="10" stroke-linecap="round"/></svg>
