<svg width="24" height="24" viewBox="0 0 24 24" fill="none" xmlns="http://www.w3.org/2000/svg"><path d="M7.12 3.00C7.12 4.21 4.68 4.21 4.68 5.41C4.68 6.62 7.12 6.62 7.12 7.83C7.12 9.04 4.68 9.04 4.68 10.25C4.68 11.46 7.12 11.46 7.12 12.67C7.12 13.87 4.68 13.87 4.68 15.08" stroke="#FF6F00" stroke-width="1.2" stroke-miterlimit="10" stroke-linecap="round"/><path d="M13.68 3.00C13.68 4.21 11.24 4.21 11.24 5.41C11.24 6.62 13.68 6.62 13.68 7.83C13.68 9.04 11.24 9.04 11.24 10.25C11.24 11.46 13.68 11.46 13.68 12.67C13.68 13.87 11.24 13.87 11.24 15.08" stroke="#FF6F00" stroke-width="1.2" stroke-miterlimit="10" stroke-linecap="round"/><path d="M20.25 3.00C20.25 4.21 17.80 4.21 17.80 5.41C17.80 6.62 20.25 6.62 20.25 7.83C20.25 9.04 17.80 9.04 17.80 10.25C17.80 11.46 20.25 11.46 20.25 12.67C20.25 13.87 17.80 13.87 17.80 15.08" stroke="#FF6F00" stroke-width="1.2" stroke-miterlimit="10" stroke-linecap="round"/><rect x="3.75" y="18.16" width="17.79" height="2.82" rx="1.41" stroke="#FF6F00" stroke-width="1.2"/></svg>
