<svg width="24" height="24" viewBox="0 0 24 24" fill="none" xmlns="http://www.w3.org/2000/svg"><path d="M20.88 15.33C21.18 15.41 21.49 15.24 21.55 14.94C21.84 13.61 21.84 12.24 21.56 10.90C21.24 9.39 20.57 7.97 19.60 6.77C18.63 5.56 17.38 4.61 15.97 4.00C14.56 3.39 13.01 3.12 11.47 3.21C9.92 3.29 8.42 3.72 7.08 4.48C5.74 5.24 4.61 6.33 3.78 7.63C2.94 8.93 2.43 10.42 2.28 11.96C2.15 13.31 2.30 14.68 2.73 15.96C2.82 16.26 3.15 16.40 3.44 16.28C3.72 16.17 3.86 15.85 3.77 15.55C3.41 14.43 3.28 13.24 3.39 12.06C3.52 10.70 3.98 9.39 4.72 8.23C5.46 7.08 6.46 6.12 7.64 5.43C8.83 4.74 10.16 4.34 11.53 4.26C12.90 4.19 14.26 4.44 15.51 4.99C16.77 5.55 17.87 6.40 18.73 7.47C19.59 8.53 20.18 9.79 20.45 11.13C20.71 12.29 20.71 13.48 20.47 14.64C20.41 14.94 20.58 15.24 20.88 15.33Z" fill="#00CC44"/><path d="M18.50 10.54C18.71 10.46 18.82 10.21 18.71 10.00C18.23 9.00 17.52 8.12 16.65 7.44C15.70 6.66 14.59 6.16 13.45 5.97C12.31 5.78 11.14 5.91 10.07 6.37C9.12 6.77 8.19 7.40 7.43 8.21C7.28 8.38 7.30 8.64 7.48 8.79C7.66 8.94 7.92 8.91 8.08 8.74C8.74 8.04 9.56 7.49 10.46 7.15C11.46 6.75 12.52 6.63 13.52 6.80C14.52 6.96 15.46 7.41 16.23 8.09C16.90 8.69 17.41 9.45 17.74 10.32C17.84 10.53 18.08 10.63 18.50 10.54Z" fill="#00CC44"/><path d="M16.54 11.70L12.76 16.90" stroke="#00CC44" stroke-width="1.25" stroke-linecap="round"/><circle cx="12.23" cy="17.49" r="1.59" fill="#00CC44"/></svg>
